<svg xmlns="http://www.w3.org/2000/svg" id="clock" viewBox="0 0 300 300" width="300" height="300"><style>.st0{fill:#fff}.st1{fill:#ff0d35}.st2{fill:#666}</style><path d="M150 2C68.3 2 2 68.3 2 150s66.3 148 148 148 148-66.3 148-148S231.7 2 150 2zm84.2 92.6l25.6-14.8c2.8-1.6 6.5-.7 8.1 2.2 1.6 2.8.7 6.5-2.2 8.1l-25.6 14.8c-2.8 1.6-6.5.7-8.1-2.2-1.6-2.8-.6-6.5 2.2-8.1zm-90.1-74.8c0-3.3 2.7-5.9 5.9-5.9 3.3 0 5.9 2.7 5.9 5.9v29.6c0 3.3-2.7 5.9-5.9 5.9-3.3 0-5.9-2.7-5.9-5.9V19.8zM81.9 32.1c2.8-1.6 6.5-.7 8.1 2.2l14.8 25.6c1.6 2.8.7 6.4-2.2 8.1-2.8 1.6-6.5.7-8.1-2.2L79.8 40.2c-1.7-2.9-.7-6.5 2.1-8.1zM13.8 150c0-3.3 2.7-5.9 5.9-5.9h29.6c3.3 0 5.9 2.6 5.9 5.9 0 3.3-2.7 5.9-5.9 5.9H19.7c-3.2 0-5.9-2.6-5.9-5.9zm52 55.4l-25.6 14.8c-2.8 1.6-6.5.7-8.1-2.2-1.6-2.8-.7-6.5 2.2-8.1l25.6-14.8c2.8-1.6 6.5-.7 8.1 2.2 1.6 2.9.6 6.5-2.2 8.1zM68 102.6c-1.6 2.8-5.3 3.8-8.1 2.2L34.3 90c-2.8-1.6-3.8-5.3-2.2-8.1 1.6-2.8 5.3-3.8 8.1-2.2l25.6 14.8c2.8 1.7 3.8 5.3 2.2 8.1zm36.8 137.5L90 265.7c-1.6 2.8-5.3 3.8-8.1 2.2-2.8-1.6-3.8-5.3-2.2-8.1l14.8-25.6c1.6-2.8 5.3-3.8 8.1-2.2 2.9 1.7 3.8 5.3 2.2 8.1zm51.1 40.1c0 3.3-2.7 5.9-5.9 5.9-3.3 0-5.9-2.7-5.9-5.9v-29.6c0-3.3 2.6-5.9 5.9-5.9 3.3 0 5.9 2.7 5.9 5.9v29.6zm62.1-12.3c-2.8 1.6-6.5.7-8.1-2.2l-14.8-25.6c-1.6-2.8-.7-6.5 2.2-8.1 2.8-1.6 6.5-.7 8.1 2.2l14.8 25.6c1.6 2.9.7 6.5-2.2 8.1zm2.3-227.7l-14.8 25.6c-1.6 2.8-5.3 3.8-8.1 2.2-2.8-1.6-3.8-5.3-2.2-8.1L210 34.3c1.6-2.8 5.3-3.8 8.1-2.2 2.9 1.7 3.8 5.3 2.2 8.1zm47.6 177.9c-1.6 2.8-5.3 3.8-8.1 2.2l-25.6-14.8c-2.8-1.6-3.8-5.3-2.2-8.1 1.6-2.8 5.3-3.8 8.1-2.2l25.6 14.8c2.9 1.7 3.8 5.3 2.2 8.1zm12.3-62.1h-29.6c-3.3 0-5.9-2.6-5.9-5.9 0-3.3 2.7-5.9 5.9-5.9h29.6c3.3 0 5.9 2.7 5.9 5.9.1 3.2-2.6 5.9-5.9 5.9z" class="st0"/></svg>